<svg width="360" height="360" viewBox="0 0 360 360" fill="none" xmlns="http://www.w3.org/2000/svg">
<g clip-path="url(#clip0_279_665)">
<rect width="216" height="216" transform="translate(27.2649 180) rotate(-45)" fill="white"/>
<rect x="112.471" y="230.912" width="23.5" height="23.5" transform="rotate(-45 112.471 230.912)" fill="#C0C040" stroke="white" stroke-width="0.5"/>
<rect x="129.442" y="213.941" width="23.5" height="23.5" transform="rotate(-45 129.442 213.941)" fill="#C0C040" stroke="white" stroke-width="0.5"/>
<rect x="146.412" y="196.971" width="23.5" height="23.5" transform="rotate(-45 146.412 196.971)" fill="#C0C040" stroke="white" stroke-width="0.5"/>
<rect x="44.5891" y="163.029" width="23.5" height="23.5" transform="rotate(-45 44.5891 163.029)" fill="#40C040" stroke="white" stroke-width="0.5"/>
<rect x="61.5596" y="146.059" width="23.5" height="23.5" transform="rotate(-45 61.5596 146.059)" fill="#40C040" stroke="white" stroke-width="0.5"/>
<rect x="78.5302" y="163.029" width="23.5" height="23.5" transform="rotate(-45 78.5302 163.029)" fill="#40C040" stroke="white" stroke-width="0.5"/>
<rect x="78.5302" y="129.088" width="23.5" height="23.5" transform="rotate(-45 78.5302 129.088)" fill="#40C040" stroke="white" stroke-width="0.5"/>
<rect x="95.5007" y="146.059" width="23.5" height="23.5" transform="rotate(-45 95.5007 146.059)" fill="#40C040" stroke="white" stroke-width="0.5"/>
<rect x="112.471" y="163.029" width="23.5" height="23.5" transform="rotate(-45 112.471 163.029)" fill="#40C040" stroke="white" stroke-width="0.5"/>
<rect x="95.5007" y="112.118" width="23.5" height="23.5" transform="rotate(-45 95.5007 112.118)" fill="#40C040" stroke="white" stroke-width="0.5"/>
<rect x="112.471" y="129.088" width="23.5" height="23.5" transform="rotate(-45 112.471 129.088)" fill="#40C040" stroke="white" stroke-width="0.5"/>
<rect x="129.442" y="146.059" width="23.5" height="23.5" transform="rotate(-45 129.442 146.059)" fill="#40C040" stroke="white" stroke-width="0.5"/>
<rect x="112.471" y="95.1472" width="23.5" height="23.5" transform="rotate(-45 112.471 95.1472)" fill="#40C040" stroke="white" stroke-width="0.5"/>
<rect x="129.442" y="112.118" width="23.5" height="23.5" transform="rotate(-45 129.442 112.118)" fill="#40C040" stroke="white" stroke-width="0.5"/>
<rect x="146.412" y="129.088" width="23.5" height="23.5" transform="rotate(-45 146.412 129.088)" fill="#40C040" stroke="white" stroke-width="0.5"/>
<rect x="180.354" y="129.088" width="23.5" height="23.5" transform="rotate(-45 180.354 129.088)" fill="#40C040" stroke="white" stroke-width="0.5"/>
<rect x="129.442" y="78.1766" width="23.5" height="23.5" transform="rotate(-45 129.442 78.1766)" fill="#40C040" stroke="white" stroke-width="0.5"/>
<rect x="146.412" y="95.1472" width="23.5" height="23.5" transform="rotate(-45 146.412 95.1472)" fill="#40C040" stroke="white" stroke-width="0.5"/>
<rect x="197.324" y="112.118" width="23.5" height="23.5" transform="rotate(-45 197.324 112.118)" fill="#40C040" stroke="white" stroke-width="0.5"/>
<rect x="146.412" y="61.2061" width="23.5" height="23.5" transform="rotate(-45 146.412 61.2061)" fill="#40C040" stroke="white" stroke-width="0.5"/>
<rect x="180.354" y="95.1472" width="23.5" height="23.5" transform="rotate(-45 180.354 95.1472)" fill="#40C040" stroke="white" stroke-width="0.5"/>
<rect x="214.295" y="95.1472" width="23.5" height="23.5" transform="rotate(-45 214.295 95.1472)" fill="#40C040" stroke="white" stroke-width="0.5"/>
<rect x="180.354" y="61.2061" width="23.5" height="23.5" transform="rotate(-45 180.354 61.2061)" fill="#40C040" stroke="white" stroke-width="0.5"/>
<rect x="197.324" y="78.1766" width="23.5" height="23.5" transform="rotate(-45 197.324 78.1766)" fill="#40C040" stroke="white" stroke-width="0.5"/>
<rect x="180.354" y="196.971" width="23.5" height="23.5" transform="rotate(-45 180.354 196.971)" fill="#C0C040" stroke="white" stroke-width="0.5"/>
<rect x="197.324" y="180" width="23.5" height="23.5" transform="rotate(-45 197.324 180)" fill="#C0C040" stroke="white" stroke-width="0.5"/>
<rect x="197.324" y="213.941" width="23.5" height="23.5" transform="rotate(-45 197.324 213.941)" fill="#C0C040" stroke="white" stroke-width="0.5"/>
<rect x="214.295" y="230.912" width="23.5" height="23.5" transform="rotate(-45 214.295 230.912)" fill="#C0C040" stroke="white" stroke-width="0.5"/>
<rect x="265.206" y="180" width="23.5" height="23.5" transform="rotate(-45 265.206 180)" fill="#C0C040" stroke="white" stroke-width="0.5"/>
<rect x="265.206" y="213.941" width="23.5" height="23.5" transform="rotate(-45 265.206 213.941)" fill="#C0C040" stroke="white" stroke-width="0.5"/>
<rect x="282.177" y="196.971" width="23.5" height="23.5" transform="rotate(-45 282.177 196.971)" fill="#C0C040" stroke="white" stroke-width="0.5"/>
<rect x="299.147" y="180" width="23.5" height="23.5" transform="rotate(-45 299.147 180)" fill="#C0C040" stroke="white" stroke-width="0.5"/>
<rect x="231.265" y="213.941" width="23.5" height="23.5" transform="rotate(-45 231.265 213.941)" fill="#C0C040" stroke="white" stroke-width="0.5"/>
<rect x="248.236" y="230.912" width="23.5" height="23.5" transform="rotate(-45 248.236 230.912)" fill="#C0C040" stroke="white" stroke-width="0.5"/>
<rect x="163.383" y="146.059" width="23.5" height="23.5" transform="rotate(-45 163.383 146.059)" fill="#C040C0" stroke="white" stroke-width="0.5"/>
<rect x="163.383" y="180" width="23.5" height="23.5" transform="rotate(-45 163.383 180)" fill="#4040C0" stroke="white" stroke-width="0.5"/>
<rect x="146.412" y="163.029" width="23.5" height="23.5" transform="rotate(-45 146.412 163.029)" fill="#40C040" stroke="white" stroke-width="0.5"/>
<rect x="180.354" y="163.029" width="23.5" height="23.5" transform="rotate(-45 180.354 163.029)" fill="#40C040" stroke="white" stroke-width="0.5"/>
<rect x="197.324" y="146.059" width="23.5" height="23.5" transform="rotate(-45 197.324 146.059)" fill="#40C040" stroke="white" stroke-width="0.5"/>
<rect x="214.295" y="129.088" width="23.5" height="23.5" transform="rotate(-45 214.295 129.088)" fill="#40C040" stroke="white" stroke-width="0.5"/>
<rect x="231.265" y="112.118" width="23.5" height="23.5" transform="rotate(-45 231.265 112.118)" fill="#40C040" stroke="white" stroke-width="0.5"/>
<rect x="248.236" y="163.029" width="23.5" height="23.5" transform="rotate(-45 248.236 163.029)" fill="#40C040" stroke="white" stroke-width="0.5"/>
<rect x="282.177" y="163.029" width="23.5" height="23.5" transform="rotate(-45 282.177 163.029)" fill="#40C040" stroke="white" stroke-width="0.5"/>
<rect x="27.6185" y="180" width="23.5" height="23.5" transform="rotate(-45 27.6185 180)" fill="#C0C040" stroke="white" stroke-width="0.5"/>
<rect x="61.5596" y="180" width="23.5" height="23.5" transform="rotate(-45 61.5596 180)" fill="#C0C040" stroke="white" stroke-width="0.5"/>
<rect x="95.5007" y="180" width="23.5" height="23.5" transform="rotate(-45 95.5007 180)" fill="#C0C040" stroke="white" stroke-width="0.5"/>
<rect x="129.442" y="180" width="23.5" height="23.5" transform="rotate(-45 129.442 180)" fill="#C0C040" stroke="white" stroke-width="0.5"/>
<rect x="44.5891" y="196.971" width="23.5" height="23.5" transform="rotate(-45 44.5891 196.971)" fill="#C0C040" stroke="white" stroke-width="0.5"/>
<rect x="78.5302" y="196.971" width="23.5" height="23.5" transform="rotate(-45 78.5302 196.971)" fill="#C0C040" stroke="white" stroke-width="0.5"/>
<rect x="61.5596" y="213.941" width="23.5" height="23.5" transform="rotate(-45 61.5596 213.941)" fill="#C0C040" stroke="white" stroke-width="0.5"/>
<rect x="95.5007" y="213.941" width="23.5" height="23.5" transform="rotate(-45 95.5007 213.941)" fill="#C0C040" stroke="white" stroke-width="0.5"/>
<rect x="146.412" y="298.794" width="23.5" height="23.5" transform="rotate(-45 146.412 298.794)" fill="#C04040" stroke="white" stroke-width="0.5"/>
<rect x="112.471" y="264.853" width="23.5" height="23.5" transform="rotate(-45 112.471 264.853)" fill="#C04040" stroke="white" stroke-width="0.5"/>
<rect x="129.442" y="247.882" width="23.5" height="23.5" transform="rotate(-45 129.442 247.882)" fill="#C04040" stroke="white" stroke-width="0.5"/>
<rect x="146.412" y="230.912" width="23.5" height="23.5" transform="rotate(-45 146.412 230.912)" fill="#C04040" stroke="white" stroke-width="0.5"/>
<rect x="163.383" y="213.941" width="23.5" height="23.5" transform="rotate(-45 163.383 213.941)" fill="#C04040" stroke="white" stroke-width="0.5"/>
<rect x="129.442" y="281.823" width="23.5" height="23.5" transform="rotate(-45 129.442 281.823)" fill="#C04040" stroke="white" stroke-width="0.5"/>
<rect x="146.412" y="264.853" width="23.5" height="23.5" transform="rotate(-45 146.412 264.853)" fill="#C04040" stroke="white" stroke-width="0.5"/>
<rect x="163.383" y="247.882" width="23.5" height="23.5" transform="rotate(-45 163.383 247.882)" fill="#C04040" stroke="white" stroke-width="0.5"/>
<rect x="180.354" y="230.912" width="23.5" height="23.5" transform="rotate(-45 180.354 230.912)" fill="#C04040" stroke="white" stroke-width="0.5"/>
<rect x="163.383" y="281.823" width="23.5" height="23.5" transform="rotate(-45 163.383 281.823)" fill="#C04040" stroke="white" stroke-width="0.5"/>
<rect x="180.354" y="264.853" width="23.5" height="23.5" transform="rotate(-45 180.354 264.853)" fill="#C04040" stroke="white" stroke-width="0.5"/>
<rect x="197.324" y="247.882" width="23.5" height="23.5" transform="rotate(-45 197.324 247.882)" fill="#C04040" stroke="white" stroke-width="0.5"/>
<rect x="163.383" y="315.764" width="23.5" height="23.5" transform="rotate(-45 163.383 315.764)" fill="#C04040" stroke="white" stroke-width="0.5"/>
<rect x="180.354" y="298.794" width="23.5" height="23.5" transform="rotate(-45 180.354 298.794)" fill="#C04040" stroke="white" stroke-width="0.5"/>
<rect x="197.324" y="281.823" width="23.5" height="23.5" transform="rotate(-45 197.324 281.823)" fill="#C04040" stroke="white" stroke-width="0.5"/>
<rect x="214.295" y="264.853" width="23.5" height="23.5" transform="rotate(-45 214.295 264.853)" fill="#C04040" stroke="white" stroke-width="0.5"/>
<rect x="214.295" y="163.029" width="23.5" height="23.5" transform="rotate(-45 214.295 163.029)" fill="#40C040" stroke="white" stroke-width="0.5"/>
<rect x="112.471" y="196.971" width="23.5" height="23.5" transform="rotate(-45 112.471 196.971)" fill="#C0C040" stroke="white" stroke-width="0.5"/>
<rect x="78.5302" y="230.912" width="23.5" height="23.5" transform="rotate(-45 78.5302 230.912)" fill="#C0C040" stroke="white" stroke-width="0.5"/>
<rect x="231.265" y="146.059" width="23.5" height="23.5" transform="rotate(-45 231.265 146.059)" fill="#40C040" stroke="white" stroke-width="0.5"/>
<rect x="248.236" y="129.088" width="23.5" height="23.5" transform="rotate(-45 248.236 129.088)" fill="#40C040" stroke="white" stroke-width="0.5"/>
<rect x="95.5007" y="247.882" width="23.5" height="23.5" transform="rotate(-45 95.5007 247.882)" fill="#C0C040" stroke="white" stroke-width="0.5"/>
<rect x="265.206" y="146.059" width="23.5" height="23.5" transform="rotate(-45 265.206 146.059)" fill="#40C040" stroke="white" stroke-width="0.5"/>
<rect x="214.295" y="196.971" width="23.5" height="23.5" transform="rotate(-45 214.295 196.971)" fill="#C0C040" stroke="white" stroke-width="0.5"/>
<rect x="231.265" y="180" width="23.5" height="23.5" transform="rotate(-45 231.265 180)" fill="#C0C040" stroke="white" stroke-width="0.5"/>
<rect x="231.265" y="247.882" width="23.5" height="23.5" transform="rotate(-45 231.265 247.882)" fill="#C0C040" stroke="white" stroke-width="0.5"/>
<rect x="248.236" y="196.971" width="23.5" height="23.5" transform="rotate(-45 248.236 196.971)" fill="#C0C040" stroke="white" stroke-width="0.5"/>
<rect x="163.383" y="44.2355" width="23.5" height="23.5" transform="rotate(-45 163.383 44.2355)" fill="#C040C0" stroke="white" stroke-width="0.5"/>
<rect x="163.383" y="78.1766" width="23.5" height="23.5" transform="rotate(-45 163.383 78.1766)" fill="#C040C0" stroke="white" stroke-width="0.5"/>
<rect x="163.383" y="112.118" width="23.5" height="23.5" transform="rotate(-45 163.383 112.118)" fill="#C040C0" stroke="white" stroke-width="0.5"/>
</g>
<defs>
<clipPath id="clip0_279_665">
<rect width="216" height="216" fill="white" transform="translate(27.2649 180) rotate(-45)"/>
</clipPath>
</defs>
</svg>
