<svg width="512" height="512" viewBox="0 0 512 512" fill="none" xmlns="http://www.w3.org/2000/svg">
<path fill-rule="evenodd" clip-rule="evenodd" d="M112.314 426.098C106.065 432.346 95.9347 432.346 89.6863 426.098C83.4379 419.849 83.4379 409.719 89.6863 403.47L236.765 256.392L89.6863 109.313C83.4379 103.065 83.4379 92.9346 89.6863 86.6865C95.9347 80.438 106.065 80.438 112.314 86.6865L256.196 230.568L400.078 86.686C406.327 80.438 416.457 80.438 422.706 86.686C428.954 92.9346 428.954 103.065 422.706 109.313L275.627 256.392L422.706 403.47C428.954 409.718 428.954 419.849 422.706 426.097C416.457 432.346 406.327 432.346 400.078 426.097L256.196 282.215L112.314 426.098Z" fill="#D9D9D9"/>
</svg>
