<svg width="360" height="360" viewBox="0 0 360 360" fill="none" xmlns="http://www.w3.org/2000/svg">
<g clip-path="url(#clip0_279_667)">
<rect width="240" height="240" transform="translate(10.2944 180) rotate(-45)" fill="white"/>
<rect x="180.354" y="180" width="23.5" height="23.5" transform="rotate(-45 180.354 180)" fill="#4040C0" stroke="white" stroke-width="0.5"/>
<rect x="146.412" y="180" width="23.5" height="23.5" transform="rotate(-45 146.412 180)" fill="#4040C0" stroke="white" stroke-width="0.5"/>
<rect x="163.383" y="163.029" width="23.5" height="23.5" transform="rotate(-45 163.383 163.029)" fill="#4040C0" stroke="white" stroke-width="0.5"/>
<rect x="163.383" y="196.971" width="23.5" height="23.5" transform="rotate(-45 163.383 196.971)" fill="#4040C0" stroke="white" stroke-width="0.5"/>
<rect x="10.6479" y="180" width="23.5" height="23.5" transform="rotate(-45 10.6479 180)" fill="#C0C040" stroke="white" stroke-width="0.5"/>
<rect x="112.471" y="180" width="23.5" height="23.5" transform="rotate(-45 112.471 180)" fill="#C0C040" stroke="white" stroke-width="0.5"/>
<rect x="214.295" y="180" width="23.5" height="23.5" transform="rotate(-45 214.295 180)" fill="#C0C040" stroke="white" stroke-width="0.5"/>
<rect x="248.236" y="180" width="23.5" height="23.5" transform="rotate(-45 248.236 180)" fill="#C0C040" stroke="white" stroke-width="0.5"/>
<rect x="282.177" y="180" width="23.5" height="23.5" transform="rotate(-45 282.177 180)" fill="#C0C040" stroke="white" stroke-width="0.5"/>
<rect x="78.5302" y="180" width="23.5" height="23.5" transform="rotate(-45 78.5302 180)" fill="#C0C040" stroke="white" stroke-width="0.5"/>
<rect x="44.5891" y="180" width="23.5" height="23.5" transform="rotate(-45 44.5891 180)" fill="#C0C040" stroke="white" stroke-width="0.5"/>
<rect x="316.118" y="180" width="23.5" height="23.5" transform="rotate(-45 316.118 180)" fill="#C0C040" stroke="white" stroke-width="0.5"/>
<rect x="61.5596" y="196.971" width="23.5" height="23.5" transform="rotate(-45 61.5596 196.971)" fill="#C0C040" stroke="white" stroke-width="0.5"/>
<rect x="27.6185" y="196.971" width="23.5" height="23.5" transform="rotate(-45 27.6185 196.971)" fill="#C0C040" stroke="white" stroke-width="0.5"/>
<rect x="265.206" y="196.971" width="23.5" height="23.5" transform="rotate(-45 265.206 196.971)" fill="#C0C040" stroke="white" stroke-width="0.5"/>
<rect x="299.147" y="196.971" width="23.5" height="23.5" transform="rotate(-45 299.147 196.971)" fill="#C0C040" stroke="white" stroke-width="0.5"/>
<rect x="44.5891" y="213.941" width="23.5" height="23.5" transform="rotate(-45 44.5891 213.941)" fill="#C04040" stroke="white" stroke-width="0.5"/>
<rect x="146.412" y="213.941" width="23.5" height="23.5" transform="rotate(-45 146.412 213.941)" fill="#C04040" stroke="white" stroke-width="0.5"/>
<rect x="163.383" y="332.735" width="23.5" height="23.5" transform="rotate(-45 163.383 332.735)" fill="#C04040" stroke="white" stroke-width="0.5"/>
<rect x="180.354" y="213.941" width="23.5" height="23.5" transform="rotate(-45 180.354 213.941)" fill="#C04040" stroke="white" stroke-width="0.5"/>
<rect x="282.177" y="213.941" width="23.5" height="23.5" transform="rotate(-45 282.177 213.941)" fill="#C04040" stroke="white" stroke-width="0.5"/>
<rect x="61.5596" y="230.912" width="23.5" height="23.5" transform="rotate(-45 61.5596 230.912)" fill="#C04040" stroke="white" stroke-width="0.5"/>
<rect x="78.5302" y="213.941" width="23.5" height="23.5" transform="rotate(-45 78.5302 213.941)" fill="#C04040" stroke="white" stroke-width="0.5"/>
<rect x="112.471" y="213.941" width="23.5" height="23.5" transform="rotate(-45 112.471 213.941)" fill="#C04040" stroke="white" stroke-width="0.5"/>
<rect x="95.5007" y="230.912" width="23.5" height="23.5" transform="rotate(-45 95.5007 230.912)" fill="#C04040" stroke="white" stroke-width="0.5"/>
<rect x="129.442" y="230.912" width="23.5" height="23.5" transform="rotate(-45 129.442 230.912)" fill="#C04040" stroke="white" stroke-width="0.5"/>
<rect x="78.5302" y="247.882" width="23.5" height="23.5" transform="rotate(-45 78.5302 247.882)" fill="#C04040" stroke="white" stroke-width="0.5"/>
<rect x="112.471" y="247.882" width="23.5" height="23.5" transform="rotate(-45 112.471 247.882)" fill="#C04040" stroke="white" stroke-width="0.5"/>
<rect x="95.5007" y="264.853" width="23.5" height="23.5" transform="rotate(-45 95.5007 264.853)" fill="#C04040" stroke="white" stroke-width="0.5"/>
<rect x="112.471" y="281.823" width="23.5" height="23.5" transform="rotate(-45 112.471 281.823)" fill="#C04040" stroke="white" stroke-width="0.5"/>
<rect x="129.442" y="264.853" width="23.5" height="23.5" transform="rotate(-45 129.442 264.853)" fill="#C04040" stroke="white" stroke-width="0.5"/>
<rect x="163.383" y="230.912" width="23.5" height="23.5" transform="rotate(-45 163.383 230.912)" fill="#C04040" stroke="white" stroke-width="0.5"/>
<rect x="214.295" y="213.941" width="23.5" height="23.5" transform="rotate(-45 214.295 213.941)" fill="#C04040" stroke="white" stroke-width="0.5"/>
<rect x="146.412" y="247.882" width="23.5" height="23.5" transform="rotate(-45 146.412 247.882)" fill="#C04040" stroke="white" stroke-width="0.5"/>
<rect x="197.324" y="230.912" width="23.5" height="23.5" transform="rotate(-45 197.324 230.912)" fill="#C04040" stroke="white" stroke-width="0.5"/>
<rect x="248.236" y="213.941" width="23.5" height="23.5" transform="rotate(-45 248.236 213.941)" fill="#C04040" stroke="white" stroke-width="0.5"/>
<rect x="180.354" y="247.882" width="23.5" height="23.5" transform="rotate(-45 180.354 247.882)" fill="#C04040" stroke="white" stroke-width="0.5"/>
<rect x="163.383" y="264.853" width="23.5" height="23.5" transform="rotate(-45 163.383 264.853)" fill="#C04040" stroke="white" stroke-width="0.5"/>
<rect x="231.265" y="230.912" width="23.5" height="23.5" transform="rotate(-45 231.265 230.912)" fill="#C04040" stroke="white" stroke-width="0.5"/>
<rect x="146.412" y="281.823" width="23.5" height="23.5" transform="rotate(-45 146.412 281.823)" fill="#C04040" stroke="white" stroke-width="0.5"/>
<rect x="129.442" y="298.794" width="23.5" height="23.5" transform="rotate(-45 129.442 298.794)" fill="#C04040" stroke="white" stroke-width="0.5"/>
<rect x="146.412" y="315.764" width="23.5" height="23.5" transform="rotate(-45 146.412 315.764)" fill="#C04040" stroke="white" stroke-width="0.5"/>
<rect x="163.383" y="298.794" width="23.5" height="23.5" transform="rotate(-45 163.383 298.794)" fill="#C04040" stroke="white" stroke-width="0.5"/>
<rect x="180.354" y="281.823" width="23.5" height="23.5" transform="rotate(-45 180.354 281.823)" fill="#C04040" stroke="white" stroke-width="0.5"/>
<rect x="197.324" y="264.853" width="23.5" height="23.5" transform="rotate(-45 197.324 264.853)" fill="#C04040" stroke="white" stroke-width="0.5"/>
<rect x="214.295" y="247.882" width="23.5" height="23.5" transform="rotate(-45 214.295 247.882)" fill="#C04040" stroke="white" stroke-width="0.5"/>
<rect x="180.354" y="315.764" width="23.5" height="23.5" transform="rotate(-45 180.354 315.764)" fill="#C04040" stroke="white" stroke-width="0.5"/>
<rect x="197.324" y="298.794" width="23.5" height="23.5" transform="rotate(-45 197.324 298.794)" fill="#C04040" stroke="white" stroke-width="0.5"/>
<rect x="214.295" y="281.823" width="23.5" height="23.5" transform="rotate(-45 214.295 281.823)" fill="#C04040" stroke="white" stroke-width="0.5"/>
<rect x="231.265" y="264.853" width="23.5" height="23.5" transform="rotate(-45 231.265 264.853)" fill="#C04040" stroke="white" stroke-width="0.5"/>
<rect x="248.236" y="247.882" width="23.5" height="23.5" transform="rotate(-45 248.236 247.882)" fill="#C04040" stroke="white" stroke-width="0.5"/>
<rect x="265.206" y="230.912" width="23.5" height="23.5" transform="rotate(-45 265.206 230.912)" fill="#C04040" stroke="white" stroke-width="0.5"/>
<rect x="163.383" y="129.088" width="23.5" height="23.5" transform="rotate(-45 163.383 129.088)" fill="#C040C0" stroke="white" stroke-width="0.5"/>
<rect x="146.412" y="112.118" width="23.5" height="23.5" transform="rotate(-45 146.412 112.118)" fill="#C040C0" stroke="white" stroke-width="0.5"/>
<rect x="180.354" y="112.118" width="23.5" height="23.5" transform="rotate(-45 180.354 112.118)" fill="#C040C0" stroke="white" stroke-width="0.5"/>
<rect x="163.383" y="95.1472" width="23.5" height="23.5" transform="rotate(-45 163.383 95.1472)" fill="#C040C0" stroke="white" stroke-width="0.5"/>
<rect x="163.383" y="61.2061" width="23.5" height="23.5" transform="rotate(-45 163.383 61.2061)" fill="#C040C0" stroke="white" stroke-width="0.5"/>
<rect x="163.383" y="27.2649" width="23.5" height="23.5" transform="rotate(-45 163.383 27.2649)" fill="#C040C0" stroke="white" stroke-width="0.5"/>
<rect x="180.354" y="44.2355" width="23.5" height="23.5" transform="rotate(-45 180.354 44.2355)" fill="#C040C0" stroke="white" stroke-width="0.5"/>
<rect x="146.412" y="44.2355" width="23.5" height="23.5" transform="rotate(-45 146.412 44.2355)" fill="#C040C0" stroke="white" stroke-width="0.5"/>
<rect x="146.412" y="78.1766" width="23.5" height="23.5" transform="rotate(-45 146.412 78.1766)" fill="#C040C0" stroke="white" stroke-width="0.5"/>
<rect x="180.354" y="78.1766" width="23.5" height="23.5" transform="rotate(-45 180.354 78.1766)" fill="#C040C0" stroke="white" stroke-width="0.5"/>
<rect x="197.324" y="61.2061" width="23.5" height="23.5" transform="rotate(-45 197.324 61.2061)" fill="#C040C0" stroke="white" stroke-width="0.5"/>
<rect x="129.442" y="61.2061" width="23.5" height="23.5" transform="rotate(-45 129.442 61.2061)" fill="#C040C0" stroke="white" stroke-width="0.5"/>
<rect x="146.412" y="146.059" width="23.5" height="23.5" transform="rotate(-45 146.412 146.059)" fill="#40C040" stroke="white" stroke-width="0.5"/>
<rect x="129.442" y="129.088" width="23.5" height="23.5" transform="rotate(-45 129.442 129.088)" fill="#40C040" stroke="white" stroke-width="0.5"/>
<rect x="180.354" y="146.059" width="23.5" height="23.5" transform="rotate(-45 180.354 146.059)" fill="#40C040" stroke="white" stroke-width="0.5"/>
<rect x="197.324" y="129.088" width="23.5" height="23.5" transform="rotate(-45 197.324 129.088)" fill="#40C040" stroke="white" stroke-width="0.5"/>
<rect x="214.295" y="146.059" width="23.5" height="23.5" transform="rotate(-45 214.295 146.059)" fill="#40C040" stroke="white" stroke-width="0.5"/>
<rect x="248.236" y="146.059" width="23.5" height="23.5" transform="rotate(-45 248.236 146.059)" fill="#40C040" stroke="white" stroke-width="0.5"/>
<rect x="197.324" y="95.1472" width="23.5" height="23.5" transform="rotate(-45 197.324 95.1472)" fill="#40C040" stroke="white" stroke-width="0.5"/>
<rect x="214.295" y="78.1766" width="23.5" height="23.5" transform="rotate(-45 214.295 78.1766)" fill="#40C040" stroke="white" stroke-width="0.5"/>
<rect x="214.295" y="112.118" width="23.5" height="23.5" transform="rotate(-45 214.295 112.118)" fill="#40C040" stroke="white" stroke-width="0.5"/>
<rect x="231.265" y="95.1472" width="23.5" height="23.5" transform="rotate(-45 231.265 95.1472)" fill="#40C040" stroke="white" stroke-width="0.5"/>
<rect x="231.265" y="129.088" width="23.5" height="23.5" transform="rotate(-45 231.265 129.088)" fill="#40C040" stroke="white" stroke-width="0.5"/>
<rect x="248.236" y="112.118" width="23.5" height="23.5" transform="rotate(-45 248.236 112.118)" fill="#40C040" stroke="white" stroke-width="0.5"/>
<rect x="265.206" y="129.088" width="23.5" height="23.5" transform="rotate(-45 265.206 129.088)" fill="#40C040" stroke="white" stroke-width="0.5"/>
<rect x="282.177" y="146.059" width="23.5" height="23.5" transform="rotate(-45 282.177 146.059)" fill="#40C040" stroke="white" stroke-width="0.5"/>
<rect x="112.471" y="146.059" width="23.5" height="23.5" transform="rotate(-45 112.471 146.059)" fill="#40C040" stroke="white" stroke-width="0.5"/>
<rect x="78.5302" y="146.059" width="23.5" height="23.5" transform="rotate(-45 78.5302 146.059)" fill="#40C040" stroke="white" stroke-width="0.5"/>
<rect x="44.5891" y="146.059" width="23.5" height="23.5" transform="rotate(-45 44.5891 146.059)" fill="#40C040" stroke="white" stroke-width="0.5"/>
<rect x="61.5596" y="129.088" width="23.5" height="23.5" transform="rotate(-45 61.5596 129.088)" fill="#40C040" stroke="white" stroke-width="0.5"/>
<rect x="95.5007" y="129.088" width="23.5" height="23.5" transform="rotate(-45 95.5007 129.088)" fill="#40C040" stroke="white" stroke-width="0.5"/>
<rect x="78.5302" y="112.118" width="23.5" height="23.5" transform="rotate(-45 78.5302 112.118)" fill="#40C040" stroke="white" stroke-width="0.5"/>
<rect x="95.5007" y="95.1472" width="23.5" height="23.5" transform="rotate(-45 95.5007 95.1472)" fill="#40C040" stroke="white" stroke-width="0.5"/>
<rect x="112.471" y="112.118" width="23.5" height="23.5" transform="rotate(-45 112.471 112.118)" fill="#40C040" stroke="white" stroke-width="0.5"/>
<rect x="129.442" y="95.1472" width="23.5" height="23.5" transform="rotate(-45 129.442 95.1472)" fill="#40C040" stroke="white" stroke-width="0.5"/>
<rect x="112.471" y="78.1766" width="23.5" height="23.5" transform="rotate(-45 112.471 78.1766)" fill="#40C040" stroke="white" stroke-width="0.5"/>
<rect x="95.5007" y="163.029" width="23.5" height="23.5" transform="rotate(-45 95.5007 163.029)" fill="#40C040" stroke="white" stroke-width="0.5"/>
<rect x="129.442" y="163.029" width="23.5" height="23.5" transform="rotate(-45 129.442 163.029)" fill="#40C040" stroke="white" stroke-width="0.5"/>
<rect x="197.324" y="163.029" width="23.5" height="23.5" transform="rotate(-45 197.324 163.029)" fill="#40C040" stroke="white" stroke-width="0.5"/>
<rect x="231.265" y="163.029" width="23.5" height="23.5" transform="rotate(-45 231.265 163.029)" fill="#40C040" stroke="white" stroke-width="0.5"/>
<rect x="129.442" y="196.971" width="23.5" height="23.5" transform="rotate(-45 129.442 196.971)" fill="#C0C040" stroke="white" stroke-width="0.5"/>
<rect x="95.5007" y="196.971" width="23.5" height="23.5" transform="rotate(-45 95.5007 196.971)" fill="#C0C040" stroke="white" stroke-width="0.5"/>
<rect x="197.324" y="196.971" width="23.5" height="23.5" transform="rotate(-45 197.324 196.971)" fill="#C0C040" stroke="white" stroke-width="0.5"/>
<rect x="231.265" y="196.971" width="23.5" height="23.5" transform="rotate(-45 231.265 196.971)" fill="#C0C040" stroke="white" stroke-width="0.5"/>
<rect x="27.6185" y="163.029" width="23.5" height="23.5" transform="rotate(-45 27.6185 163.029)" fill="#40C040" stroke="white" stroke-width="0.5"/>
<rect x="61.5596" y="163.029" width="23.5" height="23.5" transform="rotate(-45 61.5596 163.029)" fill="#40C040" stroke="white" stroke-width="0.5"/>
<rect x="265.206" y="163.029" width="23.5" height="23.5" transform="rotate(-45 265.206 163.029)" fill="#40C040" stroke="white" stroke-width="0.5"/>
<rect x="299.147" y="163.029" width="23.5" height="23.5" transform="rotate(-45 299.147 163.029)" fill="#40C040" stroke="white" stroke-width="0.5"/>
</g>
<defs>
<clipPath id="clip0_279_667">
<rect width="240" height="240" fill="white" transform="translate(10.2944 180) rotate(-45)"/>
</clipPath>
</defs>
</svg>
